<svg width="7" height="12" viewBox="0 0 7 12" fill="none" xmlns="http://www.w3.org/2000/svg">
<path d="M6.70992 0.709986C6.61741 0.617282 6.50752 0.543735 6.38655 0.493553C6.26558 0.443372 6.13589 0.417542 6.00492 0.417542C5.87396 0.417542 5.74427 0.443372 5.6233 0.493553C5.50233 0.543735 5.39244 0.617282 5.29992 0.709986L0.709925 5.29999C0.617221 5.3925 0.543674 5.50239 0.493492 5.62336C0.443311 5.74433 0.41748 5.87402 0.41748 6.00499C0.41748 6.13595 0.443311 6.26564 0.493492 6.38661C0.543674 6.50758 0.617221 6.61747 0.709925 6.70999L5.29992 11.3C5.39251 11.3926 5.50242 11.466 5.62338 11.5161C5.74435 11.5662 5.87399 11.592 6.00492 11.592C6.13586 11.592 6.2655 11.5662 6.38647 11.5161C6.50743 11.466 6.61734 11.3926 6.70992 11.3C6.80251 11.2074 6.87595 11.0975 6.92605 10.9765C6.97616 10.8556 7.00195 10.7259 7.00195 10.595C7.00195 10.4641 6.97616 10.3344 6.92605 10.2134C6.87595 10.0925 6.80251 9.98257 6.70992 9.88999L2.82992 5.99999L6.70992 2.11999C7.09992 1.72999 7.08992 1.08999 6.70992 0.709986Z" fill="#282D32"/>
</svg>
